<?xml version="1.0" encoding="UTF-8" standalone="no"?>
<!-- Created with Inkscape (http://www.inkscape.org/) -->

<svg
   width="10.704754mm"
   height="9.9075899mm"
   viewBox="0 0 10.704754 9.9075899"
   version="1.1"
   id="svg1"
   inkscape:export-filename="logo.svg"
   inkscape:export-xdpi="96"
   inkscape:export-ydpi="96"
   inkscape:version="1.3 (0e150ed6c4, 2023-07-21)"
   sodipodi:docname="logos.svg"
   xmlns:inkscape="http://www.inkscape.org/namespaces/inkscape"
   xmlns:sodipodi="http://sodipodi.sourceforge.net/DTD/sodipodi-0.dtd"
   xmlns="http://www.w3.org/2000/svg"
   xmlns:svg="http://www.w3.org/2000/svg">
  <sodipodi:namedview
     id="namedview1"
     pagecolor="#505050"
     bordercolor="#eeeeee"
     borderopacity="1"
     inkscape:showpageshadow="0"
     inkscape:pageopacity="0"
     inkscape:pagecheckerboard="0"
     inkscape:deskcolor="#505050"
     inkscape:document-units="mm"
     inkscape:zoom="0.41071317"
     inkscape:cx="1463.3083"
     inkscape:cy="206.95708"
     inkscape:window-width="1440"
     inkscape:window-height="890"
     inkscape:window-x="-6"
     inkscape:window-y="-6"
     inkscape:window-maximized="1"
     inkscape:current-layer="layer1" />
  <defs
     id="defs1" />
  <g
     inkscape:label="Ebene 1"
     inkscape:groupmode="layer"
     id="layer1"
     transform="translate(-14.995372,-50.366699)">
    <path
       id="path34"
       style="-inkscape-font-specification:'Georgia Bold';stroke-width:10.0532;stroke-linecap:round;stroke-linejoin:round"
       d="m 17.525699,52.371841 v 0.324011 c 0.0665,0.0083 0.164848,0.02655 0.295073,0.05426 0.130224,0.02771 0.231818,0.05822 0.303857,0.09147 0.116369,0.05264 0.189662,0.1123 0.220142,0.1788 0.03048,0.06373 0.04547,0.1452 0.04547,0.244946 v 4.16047 c 0,0.105287 -0.01772,0.192214 -0.05374,0.261483 -0.03602,0.0665 -0.106584,0.122064 -0.211873,0.166398 -0.05541,0.02216 -0.149675,0.04177 -0.28267,0.05839 -0.132996,0.01663 -0.23868,0.02754 -0.31626,0.03307 v 0.324011 h 5.531962 l 0.112138,-1.83658 h -0.303341 c -0.05264,0.138537 -0.161901,0.347508 -0.328145,0.627352 -0.166244,0.277073 -0.316072,0.483317 -0.449068,0.619083 -0.04987,0.05264 -0.125893,0.09322 -0.22841,0.120923 -0.09975,0.02771 -0.208157,0.04816 -0.324528,0.06201 -0.102517,0.01383 -0.221318,0.02201 -0.357084,0.02481 -0.135765,0.0028 -0.252357,0.0047 -0.349333,0.0047 -0.207806,0 -0.372631,-0.0087 -0.494543,-0.02532 -0.119142,-0.01663 -0.213402,-0.05123 -0.28267,-0.10387 -0.07204,-0.05541 -0.121639,-0.13416 -0.149345,-0.236678 -0.02493,-0.105288 -0.03772,-0.246936 -0.03772,-0.424263 v -1.699638 h 0.607198 c 0.163474,0 0.307332,0.0196 0.432015,0.05839 0.124683,0.03602 0.232576,0.103859 0.324011,0.203606 0.06095,0.0665 0.124703,0.188025 0.191203,0.365352 0.06927,0.174556 0.112564,0.320295 0.129191,0.436666 h 0.315743 v -2.46036 h -0.315746 c -0.0194,0.119142 -0.0627,0.25891 -0.129191,0.419612 -0.06373,0.160704 -0.127476,0.273204 -0.191203,0.336931 -0.102518,0.102517 -0.215866,0.171719 -0.340547,0.207739 -0.124684,0.03602 -0.263088,0.05374 -0.415479,0.05374 h -0.607198 v -2.277377 h 0.856278 c 0.09698,0 0.219021,0.0027 0.36587,0.0083 0.14962,0.0028 0.265694,0.01368 0.348816,0.03307 0.193951,0.04156 0.389288,0.17724 0.58601,0.407211 0.196723,0.229971 0.335644,0.457182 0.415996,0.681612 h 0.315743 v -1.50433 z"
       inkscape:export-filename="icon.svg"
       inkscape:export-xdpi="96"
       inkscape:export-ydpi="96"
       sodipodi:nodetypes="ccsccssccccccccccccsscccscscsccccccsssccsccscccc" />
    <rect
       style="fill:#000000;fill-opacity:0;stroke:none;stroke-width:1.5;stroke-linecap:round;stroke-linejoin:round;stroke-dasharray:none;stroke-opacity:1"
       id="rect34"
       width="10.704755"
       height="9.9075918"
       x="14.995371"
       y="50.366699" />
  </g>
</svg>
