<?xml version="1.0" encoding="UTF-8" standalone="no"?>
<!-- Created with Inkscape (http://www.inkscape.org/) -->

<svg
   width="224.24574mm"
   height="82.356216mm"
   viewBox="0 0 224.24574 82.356216"
   version="1.1"
   id="svg1"
   inkscape:export-filename="logo.svg"
   inkscape:export-xdpi="96"
   inkscape:export-ydpi="96"
   xmlns:inkscape="http://www.inkscape.org/namespaces/inkscape"
   xmlns:sodipodi="http://sodipodi.sourceforge.net/DTD/sodipodi-0.dtd"
   xmlns="http://www.w3.org/2000/svg"
   xmlns:svg="http://www.w3.org/2000/svg">
  <sodipodi:namedview
     id="namedview1"
     pagecolor="#505050"
     bordercolor="#eeeeee"
     borderopacity="1"
     inkscape:showpageshadow="0"
     inkscape:pageopacity="0"
     inkscape:pagecheckerboard="0"
     inkscape:deskcolor="#505050"
     inkscape:document-units="mm" />
  <defs
     id="defs1" />
  <g
     inkscape:label="Ebene 1"
     inkscape:groupmode="layer"
     id="layer1"
     transform="translate(-732.0287,-186.3912)">
    <path
       id="path25"
       style="font-weight:bold;font-size:53.9893px;font-family:Georgia;-inkscape-font-specification:'Georgia Bold';text-align:center;letter-spacing:0px;word-spacing:0px;text-anchor:middle;stroke-width:63.7669;stroke-linecap:round;stroke-linejoin:round"
       d="m 860.25447,186.39121 v 2.0562 c 0.42179,0.0527 1.04571,0.16687 1.87172,0.34262 0.826,0.17574 1.46749,0.36942 1.92443,0.58032 0.73813,0.33392 1.20349,0.71147 1.39681,1.13327 0.19332,0.40421 0.29042,0.92277 0.29042,1.55546 v 26.38857 c 0,0.66784 -0.11465,1.22151 -0.34313,1.66088 -0.22846,0.42179 -0.67626,0.773 -1.3441,1.0542 -0.35149,0.14059 -0.94908,0.26352 -1.79266,0.36897 -0.84358,0.10546 -1.51141,0.1757 -2.00349,0.21084 v 2.0562 h 35.08778 l 0.71158,-11.652 h -1.92443 c -0.33392,0.87873 -1.02809,2.2061 -2.08256,3.98115 -1.05448,1.75747 -2.00327,3.06678 -2.84685,3.92793 -0.31634,0.33392 -0.79978,0.58855 -1.45004,0.76429 -0.63269,0.17575 -1.31807,0.30745 -2.05621,0.39533 -0.65026,0.0878 -1.40588,0.14053 -2.26704,0.15813 -0.86116,0.0176 -1.59974,0.0264 -2.21486,0.0264 -1.31809,0 -2.36348,-0.0527 -3.13675,-0.15813 -0.75572,-0.10544 -1.35329,-0.32495 -1.79266,-0.65887 -0.45694,-0.35149 -0.77355,-0.85249 -0.9493,-1.50275 -0.15817,-0.66784 -0.23719,-1.56395 -0.23719,-2.68873 v -10.78228 h 3.84886 c 1.03691,0 1.9511,0.12291 2.74195,0.36896 0.79086,0.22847 1.47624,0.65922 2.05621,1.29192 0.38664,0.42179 0.79053,1.19497 1.21233,2.31975 0.43936,1.10721 0.71207,2.03017 0.81752,2.76831 h 2.00349 v -15.6068 h -2.00349 c -0.12303,0.75572 -0.39574,1.64355 -0.81752,2.66288 -0.40422,1.01934 -0.80812,1.73106 -1.21233,2.13527 -0.65027,0.65027 -1.37078,1.0898 -2.16163,1.31827 -0.79086,0.22847 -1.66992,0.34262 -2.63653,0.34262 h -3.84886 v -14.44667 h 5.43068 c 0.61511,0 1.3883,0.0176 2.31975,0.0527 0.94903,0.0176 1.6871,0.0878 2.21434,0.21084 1.23021,0.26362 2.46928,1.12512 3.71708,2.58382 1.2478,1.45871 2.12687,2.8997 2.63653,4.32325 h 2.0035 v -9.54308 z m -72.00078,0.9989 v 8.15041 h 0.16227 c 0.17486,-0.50117 0.32952,-0.9785 0.61495,-1.59939 0.42589,-0.94437 0.91839,-1.83594 1.47691,-2.67373 0.56043,-0.84064 1.17201,-1.59626 1.83761,-2.26188 0.72762,-0.72763 1.51398,-1.23177 2.40658,-1.33997 a 1.0001,1.0001 0 0 1 0.002,0 c 0.76604,-0.0912 1.56418,-0.14512 2.39417,-0.16382 0.81817,-0.0356 1.50591,-0.0548 2.07223,-0.0548 h 1.52962 a 1.0001,1.0001 0 0 1 0.99994,0.99994 v 30.15888 c 0,0.84841 -0.16566,1.62583 -0.57826,2.27324 -0.39419,0.62804 -1.01392,1.083 -1.73633,1.36891 -0.59873,0.244 -1.32399,0.35392 -2.37867,0.46302 -0.41516,0.0437 -0.60825,0.0559 -0.93792,0.0879 h 15.25798 v -0.01 c -0.49416,-0.0609 -0.92606,-0.0903 -1.57613,-0.2248 a 1.0001,1.0001 0 0 1 -0.004,-0.002 c -1.01935,-0.21461 -1.66394,-0.36445 -2.13269,-0.54674 a 1.0001,1.0001 0 0 1 -0.031,-0.0134 c -0.77041,-0.33018 -1.41745,-0.85512 -1.78542,-1.56476 a 1.0001,1.0001 0 0 1 -0.008,-0.0134 c -0.31632,-0.63263 -0.47491,-1.33328 -0.47491,-2.05465 v -29.9222 a 1.0001,1.0001 0 0 1 0.99994,-0.99994 h 1.52963 c 0.71965,0 1.49773,0.0191 2.33577,0.0548 0.84497,0.036 1.55506,0.088 2.14251,0.16382 a 1.0001,1.0001 0 0 1 0.0217,0.004 c 0.86623,0.13125 1.63299,0.62555 2.33991,1.33015 0.68924,0.65302 1.31549,1.4111 1.87689,2.27118 0.53387,0.81002 1.01187,1.67463 1.4335,2.58796 10e-4,0.003 10e-4,0.006 0.002,0.008 0.30325,0.61979 0.46654,1.13988 0.64854,1.67432 h 0.14056 v -8.15093 z m 32.94218,0 v 0.0429 c 0.32929,0.0588 0.62714,0.0832 0.99425,0.17984 0.72607,0.18651 1.35985,0.4042 1.90997,0.66817 0.72229,0.33859 1.32163,0.87824 1.65829,1.57407 0.29886,0.60145 0.44545,1.27242 0.44545,1.9668 v 26.99474 c 0,0.80507 -0.14173,1.5428 -0.49609,2.17558 a 1.0001,1.0001 0 0 1 -0.008,0.0155 c -0.36188,0.62035 -0.95186,1.07996 -1.63246,1.35754 -0.54657,0.2501 -1.12519,0.32739 -1.96526,0.40049 -0.16507,0.0147 -0.23181,0.02 -0.38085,0.0331 h 13.00231 v -0.01 c -0.33552,-0.0479 -0.60597,-0.0622 -1.01958,-0.14677 a 1.0001,1.0001 0 0 1 -0.004,0 c -0.79527,-0.16644 -1.36028,-0.31317 -1.84537,-0.56999 -0.71696,-0.37957 -1.30406,-0.87282 -1.63918,-1.54306 a 1.0001,1.0001 0 0 1 -0.0155,-0.0315 c -0.27004,-0.58917 -0.38085,-1.25055 -0.38085,-1.97042 v -13.02349 a 1.0001,1.0001 0 0 1 0.99994,-0.99994 h 17.58393 a 1.0001,1.0001 0 0 1 1.00046,0.99994 v 13.31288 c 0,0.80507 -0.14173,1.5428 -0.49609,2.17558 a 1.0001,1.0001 0 0 1 -0.0103,0.0155 c -0.36188,0.62035 -0.95184,1.07996 -1.63246,1.35754 -0.54656,0.25011 -1.12519,0.32739 -1.96525,0.40049 -0.16525,0.0147 -0.23168,0.0199 -0.38086,0.0331 h 13.00386 v -0.01 c -0.33551,-0.0479 -0.60545,-0.0622 -1.01906,-0.14677 a 1.0001,1.0001 0 0 1 -0.006,0 c -0.79526,-0.16644 -1.35873,-0.31317 -1.84382,-0.56999 -0.71695,-0.37957 -1.30354,-0.87282 -1.63865,-1.54306 a 1.0001,1.0001 0 0 1 -0.0155,-0.0315 c -0.27005,-0.58916 -0.38085,-1.25054 -0.38085,-1.97042 v -26.9689 c 0,-0.69108 0.11693,-1.35801 0.35915,-1.97455 a 1.0001,1.0001 0 0 1 0.0119,-0.0274 c 0.32522,-0.75886 1.00595,-1.32367 1.79886,-1.60352 a 1.0001,1.0001 0 0 1 0.002,-0.002 c 0.43558,-0.15245 0.99014,-0.28619 1.71669,-0.4315 a 1.0001,1.0001 0 0 1 0.004,0 c 0.38006,-0.0742 0.66366,-0.0863 0.99374,-0.12919 h -13.50977 v 0.0434 c 0.32928,0.0588 0.62715,0.0827 0.99426,0.17932 0.72761,0.18691 1.36108,0.4055 1.91202,0.67024 0.72115,0.33866 1.31997,0.87701 1.65623,1.572 0.29886,0.60145 0.44545,1.27242 0.44545,1.9668 v 11.33626 a 1.0001,1.0001 0 0 1 -0.99994,0.99994 h -17.58445 a 1.0001,1.0001 0 0 1 -0.99994,-0.99994 v -11.59981 c 0,-0.69108 0.11695,-1.35802 0.35915,-1.97455 a 1.0001,1.0001 0 0 1 0.0119,-0.0274 c 0.32522,-0.75886 1.00594,-1.32368 1.79885,-1.60352 a 1.0001,1.0001 0 0 1 0.004,-0.002 c 0.43558,-0.15246 0.98806,-0.28619 1.71462,-0.4315 a 1.0001,1.0001 0 0 1 0.006,0 c 0.38005,-0.0742 0.66367,-0.0863 0.99374,-0.12919 z m 3.12177,41.89305 c -2.81193,0 -5.46567,0.47466 -7.96127,1.42369 -2.47802,0.93145 -4.62199,2.2671 -6.43216,4.00699 -1.82777,1.77503 -3.26878,3.91021 -4.32325,6.40581 -1.03691,2.47802 -1.55546,5.24642 -1.55546,8.3044 0,2.93496 0.53612,5.59748 1.60817,7.98763 1.07205,2.39015 2.52185,4.41996 4.3496,6.08955 1.84534,1.70474 3.98052,3.00526 6.40581,3.90157 2.4253,0.89631 5.00001,1.34462 7.72408,1.34462 3.37431,0 6.28321,-0.50978 8.72608,-1.52911 2.44287,-1.03689 4.56927,-2.47791 6.37946,-4.32325 1.7223,-1.77502 3.04039,-3.89318 3.95428,-6.35361 0.91388,-2.46045 1.37097,-5.05272 1.37097,-7.77679 0,-3.05798 -0.5449,-5.78196 -1.63452,-8.17211 -1.07205,-2.39015 -2.53063,-4.42874 -4.37596,-6.11591 -1.79261,-1.63443 -3.91954,-2.90862 -6.37998,-3.8225 -2.44287,-0.91388 -5.06149,-1.37098 -7.85585,-1.37098 z m -77.23663,0.0264 c -2.12652,0 -4.09487,0.31609 -5.90506,0.94878 -1.81019,0.63268 -3.2951,1.45028 -4.45503,2.45204 -1.21264,1.07206 -2.1351,2.28478 -2.76779,3.63802 -0.63268,1.33568 -0.94929,2.73279 -0.94929,4.19148 0,2.30228 0.60636,4.38478 1.81901,6.24768 1.23022,1.86291 3.10199,3.29514 5.61516,4.2969 1.08962,0.42179 2.24966,0.83498 3.47989,1.2392 1.2478,0.40421 2.60979,0.84323 4.08606,1.31775 2.26713,0.72055 3.93642,1.58206 5.00847,2.58382 1.08963,0.98418 1.63453,2.20568 1.63453,3.66437 0,1.77504 -0.64148,3.25117 -1.92443,4.42867 -1.26537,1.15993 -3.09324,1.73995 -5.48339,1.73995 -1.77503,0 -3.33019,-0.36929 -4.66586,-1.10743 -1.3181,-0.73814 -2.51326,-1.69571 -3.58531,-2.87321 -1.0369,-1.12477 -1.95058,-2.39896 -2.74144,-3.8225 -0.79086,-1.42355 -1.44112,-2.77676 -1.95078,-4.0597 h -2.26705 l 0.34262,13.52372 h 2.24069 l 1.81901,-1.84537 c 1.37082,0.77329 3.04012,1.44111 5.00848,2.0035 1.98594,0.56239 4.12163,0.84336 6.40633,0.84336 2.46045,0 4.61318,-0.29853 6.45852,-0.89607 1.84533,-0.59754 3.47125,-1.45027 4.87722,-2.55747 1.28294,-1.00175 2.30199,-2.25837 3.05769,-3.76979 0.75571,-1.51142 1.13378,-3.07536 1.13378,-4.69222 0,-2.5659 -0.66782,-4.70986 -2.00349,-6.43217 -1.3181,-1.73988 -3.25133,-3.10188 -5.79965,-4.08605 -1.05448,-0.40422 -2.25842,-0.82619 -3.61166,-1.26556 -1.35325,-0.43937 -2.68011,-0.8789 -3.98064,-1.31827 -2.2144,-0.72056 -3.8491,-1.55521 -4.90358,-2.50424 -1.0369,-0.94903 -1.55546,-2.17053 -1.55546,-3.66437 0,-1.58171 0.59759,-2.90858 1.79266,-3.98064 1.21265,-1.07205 2.76832,-1.60817 4.66638,-1.60817 1.51142,0 2.8295,0.30783 3.95428,0.92294 1.12477,0.59754 2.11747,1.40585 2.97863,2.42518 0.79086,0.94902 1.53771,2.14419 2.24069,3.58531 0.72056,1.42354 1.34448,2.82065 1.87172,4.19147 h 2.26756 l -0.21135,-12.75942 h -2.2934 l -1.60817,1.58181 c -1.03691,-0.57996 -2.46036,-1.1512 -4.27055,-1.71359 -1.81018,-0.57996 -3.75218,-0.86971 -5.826,-0.86971 z m 192.90141,0 c -2.12653,0 -4.09488,0.31609 -5.90507,0.94878 -1.81019,0.63268 -3.2951,1.45028 -4.45502,2.45204 -1.21265,1.07206 -2.13511,2.28478 -2.76779,3.63802 -0.63269,1.33568 -0.9493,2.73279 -0.9493,4.19148 0,2.30228 0.60637,4.38478 1.81901,6.24768 1.23023,1.86291 3.10199,3.29514 5.61516,4.2969 1.08963,0.42179 2.24967,0.83498 3.47989,1.2392 1.2478,0.40421 2.60979,0.84323 4.08606,1.31775 2.26713,0.72055 3.93643,1.58206 5.00848,2.58382 1.08962,0.98418 1.63452,2.20568 1.63452,3.66437 0,1.77504 -0.64147,3.25117 -1.92443,4.42867 -1.26537,1.15993 -3.09324,1.73995 -5.48338,1.73995 -1.77504,0 -3.3302,-0.36929 -4.66587,-1.10743 -1.3181,-0.73814 -2.51326,-1.69571 -3.58531,-2.87321 -1.0369,-1.12477 -1.95057,-2.39896 -2.74143,-3.8225 -0.79086,-1.42355 -1.44112,-2.77676 -1.95079,-4.0597 h -2.26704 l 0.34261,13.52372 h 2.24069 l 1.81901,-1.84537 c 1.37082,0.77329 3.04012,1.44111 5.00848,2.0035 1.98594,0.56239 4.12163,0.84336 6.40633,0.84336 2.46045,0 4.61319,-0.29853 6.45852,-0.89607 1.84534,-0.59754 3.47073,-1.45027 4.8767,-2.55747 1.28295,-1.00175 2.30251,-2.25837 3.05822,-3.76979 0.75571,-1.51142 1.13378,-3.07536 1.13378,-4.69222 0,-2.5659 -0.66783,-4.70986 -2.0035,-6.43217 -1.3181,-1.73988 -3.25133,-3.10188 -5.79964,-4.08605 -1.05448,-0.40422 -2.25843,-0.82619 -3.61167,-1.26556 -1.35325,-0.43937 -2.68011,-0.8789 -3.98064,-1.31827 -2.2144,-0.72056 -3.8491,-1.55521 -4.90357,-2.50424 -1.03691,-0.94903 -1.55546,-2.17053 -1.55546,-3.66437 0,-1.58171 0.59758,-2.90858 1.79265,-3.98064 1.21265,-1.07205 2.76833,-1.60817 4.66638,-1.60817 1.51142,0 2.82951,0.30783 3.95428,0.92294 1.12478,0.59754 2.11747,1.40585 2.97863,2.42518 0.79086,0.94902 1.53771,2.14419 2.24069,3.58531 0.72057,1.42354 1.34449,2.82065 1.87172,4.19147 h 2.26757 l -0.21136,-12.75942 h -2.2934 l -1.60817,1.58181 c -1.03691,-0.57996 -2.46036,-1.1512 -4.27054,-1.71359 -1.81019,-0.57996 -3.75219,-0.86971 -5.826,-0.86971 z m -54.38841,1.00149 v 10.70322 h 2.02985 c 0.54481,-1.59929 1.41458,-3.31301 2.60966,-5.14077 1.21265,-1.82776 2.32879,-2.81168 3.34811,-2.95228 0.5624,-0.0703 1.25656,-0.13175 2.08256,-0.18448 0.82601,-0.0527 1.53773,-0.0791 2.13527,-0.0791 h 1.2392 v 29.6044 c 0,0.65026 -0.11414,1.21271 -0.34261,1.68723 -0.22847,0.47452 -0.68556,0.85207 -1.37098,1.13327 -0.33392,0.1406 -0.96662,0.26352 -1.89807,0.36897 -0.91388,0.0879 -1.62561,0.15862 -2.13527,0.21135 v 2.05621 h 20.85247 v -2.05621 c -0.59753,-0.0703 -1.32734,-0.18495 -2.1885,-0.34313 -0.84357,-0.17574 -1.4675,-0.34257 -1.87172,-0.50074 -0.66783,-0.2812 -1.11563,-0.65875 -1.3441,-1.13327 -0.22847,-0.49209 -0.34261,-1.05455 -0.34261,-1.68723 v -29.34085 h 1.23868 c 0.59754,0 1.30926,0.0263 2.13527,0.0791 0.82601,0.0527 1.52017,0.11418 2.08256,0.18448 1.01933,0.1406 2.12669,1.12452 3.32176,2.95228 1.21265,1.82776 2.0912,3.54148 2.63602,5.14077 h 2.03036 v -10.70322 z m -119.45679,5.1e-4 v 2.05621 c 0.40421,0.0527 1.01058,0.16687 1.81901,0.34261 0.82599,0.15817 1.48504,0.34256 1.97714,0.55346 0.70298,0.29877 1.15956,0.67684 1.37045,1.13378 0.21089,0.43936 0.31626,0.96671 0.31626,1.58181 v 26.38806 c 0,0.72056 -0.11414,1.28302 -0.34261,1.68723 -0.2109,0.40422 -0.6587,0.74717 -1.3441,1.02836 -0.33392,0.1406 -0.92273,0.26353 -1.7663,0.36897 -0.84358,0.0879 -1.5202,0.15812 -2.02985,0.21084 v 2.05621 h 20.27214 v -2.05621 c -0.54481,-0.0527 -1.21263,-0.15809 -2.00349,-0.31626 -0.79086,-0.15817 -1.3621,-0.30743 -1.71359,-0.44803 -0.66784,-0.2812 -1.12493,-0.65049 -1.37098,-1.10743 -0.22846,-0.47451 -0.34261,-1.02819 -0.34261,-1.66088 v -10.51822 h 3.05821 c 2.53074,0 4.80641,-0.22002 6.82749,-0.65939 2.03866,-0.43937 3.84896,-1.15109 5.43067,-2.13527 1.52899,-0.94903 2.72416,-2.17931 3.58532,-3.69073 0.87871,-1.52899 1.31826,-3.34756 1.31826,-5.45651 0,-3.16343 -1.19516,-5.50986 -3.58531,-7.03885 -2.39015,-1.54657 -6.00197,-2.31976 -10.835,-2.31976 z m 78.4133,0 v 2.05621 c 0.43936,0.0703 1.03694,0.18444 1.79265,0.34261 0.77329,0.15817 1.44111,0.35134 2.0035,0.57981 0.73814,0.31634 1.20349,0.68564 1.39681,1.10743 0.19332,0.42179 0.28991,0.94914 0.28991,1.58181 v 26.38806 c 0,0.66783 -0.11415,1.22151 -0.34262,1.66088 -0.22847,0.42179 -0.67626,0.77352 -1.3441,1.05471 -0.3515,0.1406 -0.94908,0.26353 -1.79266,0.36897 -0.82601,0.0879 -1.49383,0.15812 -2.00349,0.21084 v 2.05621 h 19.95588 v -2.05621 c -0.50965,-0.0527 -1.1248,-0.14931 -1.84536,-0.2899 -0.70299,-0.15817 -1.22154,-0.30744 -1.55546,-0.44804 -0.66784,-0.29876 -1.12493,-0.66806 -1.37098,-1.10742 -0.22846,-0.43937 -0.34261,-0.97549 -0.34261,-1.60817 v -11.3621 h 1.45004 c 2.44287,2.95254 4.48147,5.55359 6.1159,7.80314 1.65201,2.24955 3.71696,5.27258 6.19498,9.0687 h 14.34124 v -2.05621 c -0.26362,-0.0176 -0.71194,-0.0703 -1.34462,-0.15813 -0.61512,-0.0879 -1.12489,-0.19323 -1.52911,-0.31626 -0.72056,-0.22847 -1.55521,-0.83483 -2.50424,-1.81901 -0.93146,-1.00175 -1.66952,-1.84518 -2.21433,-2.53059 -1.72232,-2.12653 -3.38335,-4.20954 -4.98264,-6.2482 -1.58171,-2.03866 -2.97005,-3.83088 -4.16512,-5.37745 3.07556,-0.89631 5.36052,-2.13538 6.85436,-3.71708 1.51141,-1.5993 2.26704,-3.70865 2.26704,-6.32727 0,-2.9701 -1.22151,-5.18431 -3.66437,-6.643 -2.4253,-1.47627 -5.98445,-2.21434 -10.67687,-2.21434 z m -20.23288,1.55546 c 1.86291,0 3.41859,0.48292 4.66639,1.44953 1.24779,0.9666 2.24928,2.24957 3.00498,3.84886 0.73813,1.59929 1.25669,3.42716 1.55546,5.48338 0.31634,2.03866 0.47439,4.13873 0.47439,6.3004 0,2.54832 -0.1756,4.83327 -0.5271,6.85436 -0.35149,2.02108 -0.92274,3.83139 -1.71359,5.43067 -0.73814,1.52899 -1.73083,2.73294 -2.97863,3.61167 -1.2478,0.87873 -2.74202,1.31775 -4.4819,1.31775 -1.77503,0 -3.26873,-0.43024 -4.48138,-1.2914 -1.21265,-0.87872 -2.21412,-2.10023 -3.00498,-3.66437 -0.77328,-1.54657 -1.34452,-3.35687 -1.71359,-5.43068 -0.35149,-2.0738 -0.52762,-4.27922 -0.52762,-6.61665 0,-5.50085 0.82638,-9.75417 2.4784,-12.75943 1.65201,-3.02282 4.06817,-4.53409 7.24917,-4.53409 z m -43.33895,0.84336 h 2.18798 c 2.8998,0 4.91206,0.68539 6.03684,2.05621 1.14235,1.35324 1.71359,3.43574 1.71359,6.24768 0,2.75921 -0.75563,4.8071 -2.26705,6.14278 -1.49384,1.31809 -3.6817,1.97714 -6.56394,1.97714 h -1.10742 z m 78.4133,0 h 2.08256 c 2.58347,0 4.56939,0.58002 5.95777,1.73995 1.40597,1.14235 2.10892,2.96143 2.10892,5.45703 0,2.93496 -0.71173,5.07893 -2.13527,6.43217 -1.42355,1.35324 -3.42702,2.02985 -6.01049,2.02985 h -2.00349 z" />
  </g>
</svg>


