<?xml version="1.0" encoding="UTF-8" standalone="no"?>
<!-- Created with Inkscape (http://www.inkscape.org/) -->

<svg
   width="36.021385mm"
   height="13.229167mm"
   viewBox="0 0 36.021385 13.229167"
   version="1.1"
   id="svg1"
   inkscape:export-filename="logo.svg"
   inkscape:export-xdpi="96"
   inkscape:export-ydpi="96"
   xmlns:inkscape="http://www.inkscape.org/namespaces/inkscape"
   xmlns:sodipodi="http://sodipodi.sourceforge.net/DTD/sodipodi-0.dtd"
   xmlns="http://www.w3.org/2000/svg"
   xmlns:svg="http://www.w3.org/2000/svg">
  <sodipodi:namedview
     id="namedview1"
     pagecolor="#505050"
     bordercolor="#eeeeee"
     borderopacity="1"
     inkscape:showpageshadow="0"
     inkscape:pageopacity="0"
     inkscape:pagecheckerboard="0"
     inkscape:deskcolor="#505050"
     inkscape:document-units="mm" />
  <defs
     id="defs1" />
  <g
     inkscape:label="Ebene 1"
     inkscape:groupmode="layer"
     id="layer1"
     transform="translate(0.77706,-26.394881)">
    <path
       id="path25"
       style="font-weight:bold;font-size:53.9893px;font-family:Georgia;-inkscape-font-specification:'Georgia Bold';text-align:center;letter-spacing:0px;word-spacing:0px;text-anchor:middle;stroke-width:10.2431;stroke-linecap:round;stroke-linejoin:round"
       d="m 19.820295,26.394881 v 0.330295 c 0.06775,0.0085 0.167976,0.0268 0.300661,0.05504 0.132683,0.02823 0.235728,0.05934 0.309128,0.09322 0.118568,0.05364 0.193321,0.114286 0.224374,0.182041 0.03105,0.06493 0.04665,0.148228 0.04665,0.249859 v 4.238888 c 0,0.107278 -0.01842,0.196216 -0.05512,0.266793 -0.0367,0.06775 -0.10863,0.12417 -0.215907,0.16934 -0.05646,0.02258 -0.152454,0.04233 -0.287961,0.05927 -0.135507,0.01694 -0.242783,0.02822 -0.321828,0.03387 v 0.330295 h 5.636273 l 0.114304,-1.871702 h -0.309128 c -0.05364,0.141154 -0.165146,0.354374 -0.334529,0.639506 -0.169385,0.282309 -0.321792,0.492628 -0.4573,0.630957 -0.05081,0.05364 -0.128471,0.09454 -0.232925,0.122771 -0.101631,0.02823 -0.211726,0.04939 -0.330296,0.0635 -0.104453,0.01411 -0.225831,0.02257 -0.364162,0.0254 -0.138331,0.0028 -0.256972,0.0042 -0.355781,0.0042 -0.211729,0 -0.379654,-0.0085 -0.503867,-0.0254 -0.121394,-0.01694 -0.217384,-0.0522 -0.287961,-0.105837 -0.0734,-0.05646 -0.124259,-0.136938 -0.15249,-0.241392 -0.02541,-0.107277 -0.0381,-0.251222 -0.0381,-0.4319 V 29.4819 h 0.618256 c 0.166563,0 0.313412,0.01974 0.440449,0.05927 0.127039,0.0367 0.237134,0.105893 0.330297,0.207526 0.06211,0.06775 0.126985,0.191952 0.19474,0.372629 0.07058,0.177855 0.114383,0.326114 0.131322,0.444684 h 0.321827 v -2.506975 h -0.321827 c -0.01976,0.121394 -0.06357,0.264009 -0.131322,0.427747 -0.06493,0.163741 -0.129811,0.278067 -0.19474,0.342996 -0.104456,0.104455 -0.220194,0.175059 -0.347231,0.211759 -0.127038,0.0367 -0.268245,0.05504 -0.423515,0.05504 H 22.20433 v -2.320619 h 0.87235 c 0.09881,0 0.223007,0.0028 0.372629,0.0085 0.152446,0.0028 0.271005,0.01411 0.355697,0.03387 0.197613,0.04235 0.39665,0.180732 0.597088,0.415048 0.200439,0.234317 0.341647,0.465789 0.423515,0.694458 H 25.14744 V 26.394881 Z M 8.2545573,26.555338 v 1.309229 h 0.026066 c 0.028088,-0.08051 0.052932,-0.15718 0.098782,-0.256916 0.068412,-0.151697 0.1475242,-0.294913 0.2372412,-0.42949 0.090024,-0.135035 0.1882641,-0.256413 0.2951818,-0.363334 0.1168801,-0.116882 0.2431959,-0.197864 0.3865773,-0.215244 a 0.16064957,0.16064957 0 0 1 3.374e-4,0 c 0.1230517,-0.01465 0.2512597,-0.02331 0.3845839,-0.02632 0.1314255,-0.0057 0.2418996,-0.0088 0.3328691,-0.0088 h 0.245708 a 0.16064957,0.16064957 0 0 1 0.160624,0.160624 v 4.844526 c 0,0.136283 -0.02661,0.261163 -0.09289,0.365159 -0.06332,0.100884 -0.162869,0.173966 -0.278913,0.219893 -0.096176,0.03919 -0.2126763,0.05685 -0.3820932,0.07438 -0.066689,0.007 -0.097705,0.009 -0.1506614,0.01411 h 2.4509426 v -0.0016 c -0.07938,-0.0098 -0.148756,-0.01451 -0.253179,-0.03611 a 0.16064957,0.16064957 0 0 1 -6.59e-4,-3.37e-4 c -0.163742,-0.03447 -0.267285,-0.05854 -0.342582,-0.08782 a 0.16064957,0.16064957 0 0 1 -0.005,-0.0022 c -0.123753,-0.05304 -0.22769,-0.137361 -0.286798,-0.251353 a 0.16064957,0.16064957 0 0 1 -0.0013,-0.0022 c -0.05081,-0.101621 -0.07629,-0.214169 -0.07629,-0.330045 V 26.725089 A 0.16064957,0.16064957 0 0 1 11.1638,26.564465 h 0.24571 c 0.1156,0 0.240586,0.0031 0.375203,0.0088 0.135731,0.0058 0.249795,0.01414 0.344159,0.02632 a 0.16064957,0.16064957 0 0 1 0.0035,6.58e-4 c 0.139145,0.02108 0.262313,0.100485 0.375868,0.213667 0.110715,0.104897 0.211312,0.22667 0.301491,0.364828 0.08576,0.130116 0.16254,0.269001 0.230268,0.415713 1.61e-4,4.82e-4 1.77e-4,9.15e-4 3.38e-4,0.0012 0.04871,0.09956 0.07494,0.183103 0.104177,0.268952 h 0.02258 V 26.55532 Z m 5.2916177,0 v 0.0069 c 0.05289,0.0094 0.10074,0.01337 0.15971,0.02889 0.116631,0.02996 0.218438,0.06493 0.306805,0.10733 0.116024,0.05439 0.212298,0.141075 0.266377,0.252849 0.04801,0.09661 0.07155,0.204393 0.07155,0.315934 V 31.6035 c 0,0.129322 -0.02277,0.247826 -0.07969,0.349471 a 0.16064957,0.16064957 0 0 1 -0.0013,0.0025 c -0.05813,0.09965 -0.152901,0.173478 -0.262228,0.218067 -0.0878,0.04017 -0.180743,0.05259 -0.315687,0.06433 -0.02651,0.0024 -0.03724,0.0032 -0.06118,0.0053 h 2.088607 v -0.0016 c -0.0539,-0.0077 -0.09734,-0.01 -0.163779,-0.02358 a 0.16064957,0.16064957 0 0 1 -6.42e-4,0 c -0.127747,-0.02674 -0.218507,-0.05031 -0.296429,-0.09156 -0.115168,-0.06097 -0.209475,-0.140204 -0.263307,-0.247867 a 0.16064957,0.16064957 0 0 1 -0.0025,-0.0051 c -0.04338,-0.09464 -0.06118,-0.200881 -0.06118,-0.316516 v -2.092009 a 0.16064957,0.16064957 0 0 1 0.160624,-0.160624 h 2.824568 a 0.16064957,0.16064957 0 0 1 0.160708,0.160624 v 2.138495 c 0,0.129321 -0.02277,0.247825 -0.07969,0.349471 a 0.16064957,0.16064957 0 0 1 -0.0017,0.0025 c -0.05813,0.09965 -0.152897,0.173478 -0.262227,0.218066 -0.0878,0.04018 -0.180744,0.05259 -0.315685,0.06433 -0.02654,0.0024 -0.03722,0.0032 -0.06118,0.0053 h 2.088855 v -0.0016 c -0.05389,-0.0077 -0.09726,-0.01 -0.163695,-0.02358 a 0.16064957,0.16064957 0 0 1 -9.64e-4,0 c -0.127745,-0.02674 -0.218257,-0.05031 -0.296179,-0.09156 -0.115166,-0.06097 -0.209392,-0.140205 -0.263222,-0.247868 a 0.16064957,0.16064957 0 0 1 -0.0025,-0.0051 c -0.04338,-0.09464 -0.06118,-0.200878 -0.06118,-0.316515 v -4.332109 c 0,-0.111011 0.01878,-0.218142 0.05769,-0.317179 a 0.16064957,0.16064957 0 0 1 0.0019,-0.0044 c 0.05224,-0.121898 0.161589,-0.212626 0.288957,-0.257579 a 0.16064957,0.16064957 0 0 1 3.21e-4,-3.37e-4 c 0.06997,-0.02449 0.15905,-0.04597 0.275758,-0.06931 a 0.16064957,0.16064957 0 0 1 6.43e-4,0 c 0.06105,-0.01192 0.106606,-0.01386 0.159628,-0.02075 H 17.27261 v 0.007 c 0.05289,0.0094 0.100741,0.01328 0.159712,0.02881 0.116878,0.03002 0.218635,0.06514 0.307134,0.107663 0.115841,0.0544 0.212031,0.140877 0.266046,0.252516 0.04801,0.09661 0.07155,0.204393 0.07155,0.315934 v 1.820983 a 0.16064957,0.16064957 0 0 1 -0.160624,0.160624 h -2.82453 A 0.16064957,0.16064957 0 0 1 14.931275,29.08821 v -1.863318 c 0,-0.111011 0.01879,-0.218144 0.05769,-0.317179 a 0.16064957,0.16064957 0 0 1 0.0019,-0.0044 c 0.05224,-0.121898 0.161588,-0.212627 0.288956,-0.257579 a 0.16064957,0.16064957 0 0 1 6.58e-4,-3.37e-4 c 0.06997,-0.02449 0.158716,-0.04597 0.275426,-0.06931 a 0.16064957,0.16064957 0 0 1 9.63e-4,0 c 0.06105,-0.01192 0.106608,-0.01386 0.159628,-0.02075 z m 0.501461,6.729427 c -0.45169,0 -0.87797,0.07625 -1.278847,0.228693 -0.398053,0.149622 -0.742446,0.364172 -1.03322,0.643657 -0.293601,0.285129 -0.525076,0.62811 -0.694459,1.028987 -0.166562,0.398053 -0.249859,0.842751 -0.249859,1.333965 0,0.471453 0.08612,0.899143 0.258326,1.283081 0.172207,0.383938 0.405094,0.709994 0.698692,0.978186 0.296423,0.273838 0.639405,0.482745 1.028987,0.626723 0.389585,0.143977 0.803169,0.215991 1.240746,0.215991 0.542028,0 1.009294,-0.08189 1.401701,-0.245627 0.392407,-0.166559 0.733978,-0.398035 1.024755,-0.694458 0.276659,-0.285128 0.488389,-0.625375 0.63519,-1.020603 0.1468,-0.395231 0.220224,-0.811636 0.220224,-1.249213 0,-0.491214 -0.08753,-0.928777 -0.262559,-1.312715 -0.172207,-0.383938 -0.406504,-0.711404 -0.702926,-0.98242 -0.287953,-0.262544 -0.629609,-0.467222 -1.024838,-0.614021 -0.392407,-0.1468 -0.813045,-0.220226 -1.261913,-0.220226 z M 1.6408453,33.289 c -0.3415903,0 -0.65777329,0.05077 -0.94855045,0.152406 -0.29077717,0.101629 -0.52930347,0.232963 -0.7156271,0.393879 -0.19479061,0.172209 -0.3429686,0.367013 -0.44459981,0.584388 -0.10162961,0.214555 -0.15248778,0.438978 -0.15248778,0.673292 0,0.369824 0.0974017,0.704343 0.29219395,1.003587 0.19761456,0.299246 0.49828354,0.52931 0.90198285,0.690226 0.17502948,0.06775 0.36137077,0.134126 0.55898694,0.199057 0.2004385,0.06493 0.4192197,0.135451 0.6563581,0.211675 0.3641771,0.115745 0.632321,0.254132 0.8045281,0.415048 0.1750311,0.158092 0.2625603,0.354306 0.2625603,0.588621 0,0.28513 -0.1030432,0.522246 -0.3091279,0.711392 -0.2032608,0.186324 -0.496878,0.279495 -0.8808162,0.279495 -0.2851293,0 -0.5349401,-0.05932 -0.74949344,-0.177891 C 0.70502184,38.895605 0.5130391,38.741787 0.34083195,38.552641 0.17427106,38.371966 0.02750344,38.167288 -0.09953518,37.93862 -0.22657379,37.70995 -0.33102734,37.492579 -0.41289581,37.286496 H -0.77706 l 0.0550363,2.172363 h 0.35992989 L -0.0698999,39.16243 c 0.22019962,0.124217 0.48834514,0.231491 0.80452971,0.32183 0.31900849,0.09034 0.66207189,0.135471 1.02907129,0.135471 0.3952307,0 0.7410312,-0.04795 1.0374547,-0.143938 0.2964218,-0.09599 0.557599,-0.232962 0.7834449,-0.410816 0.2060832,-0.160914 0.3697768,-0.36277 0.4911675,-0.605554 0.1213923,-0.242785 0.1821231,-0.494006 0.1821231,-0.753728 0,-0.412169 -0.1072743,-0.756561 -0.3218277,-1.033222 C 3.7243326,36.39299 3.4137911,36.174207 3.0044455,36.016116 2.8350607,35.951185 2.6416676,35.883403 2.4242919,35.812825 2.2069146,35.742248 1.9937764,35.671644 1.7848677,35.601067 1.4291609,35.485321 1.1665733,35.351248 0.99718849,35.198802 c -0.16656089,-0.152446 -0.249859,-0.34866 -0.249859,-0.588621 0,-0.254075 0.095993,-0.467215 0.28796131,-0.639424 0.1947922,-0.172207 0.4446849,-0.258326 0.7495769,-0.258326 0.2427847,0 0.4545125,0.04945 0.6351899,0.148255 0.1806758,0.09598 0.3401366,0.225827 0.4784678,0.389565 0.1270386,0.152445 0.2470077,0.344429 0.3599299,0.575921 0.1157461,0.228669 0.2159685,0.453091 0.3006609,0.673291 h 0.3642461 l -0.03395,-2.049591 H 3.5210156 l -0.258326,0.254092 C 3.0961271,33.610803 2.8674733,33.519043 2.5766962,33.428704 2.2859206,33.335543 1.9739703,33.289 1.6408453,33.289 Z m 30.9864297,0 c -0.341592,0 -0.657775,0.05077 -0.948552,0.152406 -0.290777,0.101629 -0.529303,0.232963 -0.715625,0.393879 -0.194792,0.172209 -0.34297,0.367013 -0.4446,0.584388 -0.101631,0.214555 -0.152489,0.438978 -0.152489,0.673292 0,0.369824 0.0974,0.704343 0.292193,1.003587 0.197617,0.299246 0.498284,0.52931 0.901983,0.690226 0.175031,0.06775 0.361373,0.134126 0.558987,0.199057 0.200439,0.06493 0.41922,0.135451 0.656358,0.211675 0.364177,0.115745 0.632323,0.254132 0.80453,0.415048 0.17503,0.158092 0.262559,0.354306 0.262559,0.588621 0,0.28513 -0.103042,0.522246 -0.309128,0.711392 -0.203261,0.186324 -0.496878,0.279495 -0.880815,0.279495 -0.285131,0 -0.534941,-0.05932 -0.749495,-0.177891 C 31.69145,38.895605 31.499467,38.741787 31.32726,38.552641 31.160699,38.371966 31.013933,38.167288 30.886895,37.93862 30.759856,37.70995 30.655403,37.492579 30.573533,37.286496 H 30.20937 l 0.05504,2.172363 h 0.35993 l 0.292193,-0.296429 c 0.2202,0.124217 0.488346,0.231491 0.80453,0.32183 0.319009,0.09034 0.662072,0.135471 1.029071,0.135471 0.395231,0 0.741033,-0.04795 1.037455,-0.143938 0.296424,-0.09599 0.557516,-0.232962 0.783362,-0.410816 0.206084,-0.160914 0.36986,-0.36277 0.491252,-0.605554 0.121393,-0.242785 0.182123,-0.494006 0.182123,-0.753728 0,-0.412169 -0.107276,-0.756561 -0.321829,-1.033222 -0.211731,-0.279483 -0.522273,-0.498266 -0.931617,-0.656357 -0.169384,-0.06493 -0.362779,-0.132713 -0.580155,-0.203291 -0.217377,-0.07058 -0.430515,-0.141181 -0.639424,-0.211758 -0.355707,-0.115746 -0.618294,-0.249819 -0.787678,-0.402265 -0.166562,-0.152446 -0.249859,-0.34866 -0.249859,-0.588621 0,-0.254075 0.09599,-0.467215 0.28796,-0.639424 0.194792,-0.172207 0.444687,-0.258326 0.749577,-0.258326 0.242785,0 0.454514,0.04945 0.63519,0.148255 0.180677,0.09598 0.340137,0.225827 0.478468,0.389565 0.127038,0.152445 0.247008,0.344429 0.35993,0.575921 0.115747,0.228669 0.21597,0.453091 0.300661,0.673291 h 0.364247 l -0.03395,-2.049591 H 34.50745 l -0.258326,0.254092 C 34.082555,33.610803 33.853902,33.519043 33.563126,33.428704 33.272349,33.335543 32.960399,33.289 32.627275,33.289 Z m -8.736601,0.160872 v 1.719296 h 0.326062 c 0.08751,-0.256899 0.227229,-0.53218 0.419199,-0.82578 0.194792,-0.293599 0.374082,-0.45165 0.537819,-0.474235 0.09034,-0.01129 0.201845,-0.02116 0.334529,-0.02963 0.132684,-0.0085 0.247011,-0.0127 0.342996,-0.0127 h 0.199057 v 4.755459 c 0,0.104453 -0.01834,0.194802 -0.05504,0.271025 -0.0367,0.07622 -0.110124,0.136871 -0.220225,0.182042 -0.05364,0.02258 -0.155272,0.04233 -0.304894,0.05927 -0.1468,0.01412 -0.261127,0.02548 -0.342996,0.03395 v 0.330297 h 3.349605 v -0.330297 c -0.09598,-0.01129 -0.213215,-0.02971 -0.351546,-0.05512 -0.135506,-0.02823 -0.23573,-0.05503 -0.300661,-0.08044 -0.107276,-0.04517 -0.179208,-0.105818 -0.215907,-0.182042 -0.0367,-0.07905 -0.05504,-0.169396 -0.05504,-0.271025 v -4.713124 h 0.198973 c 0.09599,0 0.210311,0.0042 0.342996,0.0127 0.132685,0.0085 0.244191,0.01834 0.334529,0.02963 0.163739,0.02258 0.341618,0.180636 0.533586,0.474235 0.194792,0.2936 0.335917,0.568881 0.423433,0.82578 h 0.326144 v -1.719296 z m -19.1887628,8.2e-5 v 0.330297 c 0.06493,0.0085 0.162333,0.02681 0.2921939,0.05503 0.1326817,0.02541 0.2385472,0.05503 0.317595,0.08891 0.1129221,0.04799 0.1862642,0.108723 0.2201402,0.182123 0.033876,0.07058 0.050802,0.155286 0.050802,0.254091 v 4.238807 c 0,0.115746 -0.018335,0.206096 -0.055035,0.271025 -0.033878,0.06493 -0.1058093,0.120021 -0.2159075,0.165189 -0.053639,0.02259 -0.1482214,0.04233 -0.283727,0.05927 -0.1355072,0.01412 -0.2441951,0.0254 -0.3260619,0.03387 v 0.330297 h 3.2563849 v -0.330297 c -0.087515,-0.0085 -0.194789,-0.02539 -0.3218276,-0.0508 -0.1270386,-0.02541 -0.2187989,-0.04938 -0.27526,-0.07197 C 7.253931,38.960622 7.1805071,38.901301 7.1409832,38.827901 7.1042849,38.751679 7.0859486,38.66274 7.0859486,38.561108 V 36.87153 h 0.491251 c 0.4065216,0 0.7720704,-0.03534 1.0967236,-0.10592 0.3274771,-0.07058 0.618272,-0.184904 0.8723476,-0.342996 0.245607,-0.152446 0.4375914,-0.35007 0.5759222,-0.592855 0.141151,-0.245607 0.211757,-0.53773 0.211757,-0.876498 0,-0.508153 -0.191983,-0.885068 -0.5759209,-1.130675 -0.3839382,-0.248431 -0.9641175,-0.372632 -1.740464,-0.372632 z m 12.5958038,0 v 0.330297 c 0.07057,0.01129 0.166567,0.02963 0.287959,0.05503 0.124216,0.02541 0.231491,0.05644 0.321829,0.09314 0.11857,0.05082 0.193321,0.110137 0.224375,0.177891 0.03105,0.06775 0.04657,0.152463 0.04657,0.254091 v 4.238807 c 0,0.107276 -0.01834,0.196215 -0.05504,0.266793 -0.0367,0.06775 -0.10863,0.124253 -0.215908,0.169421 -0.05646,0.02259 -0.152454,0.04233 -0.287961,0.05927 -0.132685,0.01412 -0.239959,0.0254 -0.321827,0.03387 v 0.330297 h 3.205583 v -0.330297 c -0.08187,-0.0085 -0.180681,-0.02398 -0.296427,-0.04657 -0.112924,-0.02541 -0.19622,-0.04939 -0.249859,-0.07197 -0.107278,-0.04799 -0.180702,-0.107312 -0.220225,-0.177888 -0.0367,-0.07058 -0.05504,-0.156697 -0.05504,-0.258326 v -1.825134 h 0.232925 c 0.392407,0.474277 0.719874,0.892093 0.982418,1.253446 0.265369,0.361353 0.597069,0.846953 0.995122,1.456737 H 24.1959 v -0.330297 c -0.04235,-0.0028 -0.114361,-0.01129 -0.215991,-0.0254 -0.09881,-0.01412 -0.180695,-0.03104 -0.245626,-0.0508 -0.115746,-0.0367 -0.249819,-0.134101 -0.402265,-0.292194 -0.149623,-0.160914 -0.268181,-0.296397 -0.355695,-0.406497 -0.276663,-0.341592 -0.54348,-0.676193 -0.800379,-1.00367 -0.254076,-0.327477 -0.47709,-0.615368 -0.669058,-0.863799 0.494038,-0.143977 0.861079,-0.343013 1.10104,-0.597087 0.242783,-0.256902 0.364162,-0.595734 0.364162,-1.016372 0,-0.477098 -0.196215,-0.832774 -0.58862,-1.067088 -0.389585,-0.237139 -0.961303,-0.355698 -1.715063,-0.355698 z m -3.250079,0.249859 c 0.299246,0 0.54914,0.07757 0.749579,0.232844 0.200437,0.155268 0.361309,0.361356 0.4827,0.618255 0.118569,0.2569 0.201867,0.550517 0.249859,0.880815 0.05082,0.327477 0.0762,0.664819 0.0762,1.012055 0,0.409346 -0.02821,0.776385 -0.08467,1.10104 -0.05646,0.324653 -0.148223,0.61545 -0.27526,0.872348 -0.11857,0.245607 -0.278029,0.439001 -0.478468,0.580155 -0.200438,0.141153 -0.44046,0.211675 -0.719943,0.211675 -0.285129,0 -0.525067,-0.06911 -0.71986,-0.207443 -0.194792,-0.141151 -0.355662,-0.337367 -0.4827,-0.58862 -0.124215,-0.248431 -0.215975,-0.539226 -0.27526,-0.872349 -0.05646,-0.333122 -0.08475,-0.687386 -0.08475,-1.062856 0,-0.883621 0.132745,-1.566846 0.398114,-2.049592 0.265369,-0.485566 0.653485,-0.728327 1.16446,-0.728327 z m -6.9616874,0.135472 h 0.3514629 c 0.465805,0 0.7890414,0.110097 0.9697187,0.330297 0.1834997,0.217375 0.27526,0.551894 0.27526,1.003586 0,0.443222 -0.1213795,0.772182 -0.3641642,0.986737 -0.2399607,0.211729 -0.5914044,0.317594 -1.0543887,0.317594 H 7.0859486 Z m 12.5958034,0 h 0.334529 c 0.414992,0 0.733997,0.09317 0.957017,0.279495 0.225846,0.183499 0.338764,0.475704 0.338764,0.876581 0,0.471453 -0.114328,0.815847 -0.342996,1.033222 -0.22867,0.217376 -0.550495,0.326062 -0.965486,0.326062 h -0.321828 z"
       inkscape:export-filename="logo2.svg"
       inkscape:export-xdpi="96"
       inkscape:export-ydpi="96" />
  </g>
</svg>
